<?xml version="1.0" encoding="utf-8"?>
<svg version="1.1" id="Layer_1" x="0px" y="0px" viewBox="0 0 512 512" style="enable-background:new 0 0 512 512;" xmlns="http://www.w3.org/2000/svg">
  <path style="fill:#FFE6B8;" d="M87.043,501.801L87.043,501.801c-12.367,0-22.391-10.025-22.391-22.391V32.591 c-0.001-12.367,10.025-22.391,22.391-22.391l0,0c12.367,0,22.391,10.025,22.391,22.391v446.818 C109.435,491.776,99.41,501.801,87.043,501.801z"/>
  <polygon style="fill: rgb(77, 211, 56);" points="447.348,254.473 109.435,254.473 109.435,32.591 447.348,32.591 366.94,141.497 "/>
  <g>
    <path style="fill:#4D3D36;" d="M379.537,141.607l76.016-102.958c2.287-3.096,2.634-7.217,0.9-10.653 c-1.734-3.436-5.256-5.603-9.105-5.603H117.991C113.699,9.403,101.452,0,87.043,0C69.072,0,54.452,14.621,54.452,32.591V479.41 c0,17.97,14.621,32.591,32.592,32.591s32.592-14.621,32.592-32.591V264.672h327.714c3.818,0,7.315-2.132,9.065-5.525 c1.75-3.392,1.458-7.478-0.756-10.589L379.537,141.607z M99.235,479.409c0,6.723-5.47,12.192-12.193,12.192 c-6.723,0-12.193-5.469-12.193-12.192V32.591c0.001-6.723,5.471-12.192,12.194-12.192s12.193,5.469,12.193,12.192v446.819H99.235z M119.634,244.274V42.79h307.505l-68.404,92.65c-2.619,3.548-2.662,8.379-0.105,11.972l68.939,96.863L119.634,244.274 L119.634,244.274z"/>
    <path style="fill:#4D3D36;" d="M258.035,210.686H145.058c-5.633,0-10.199,4.567-10.199,10.199s4.566,10.199,10.199,10.199h112.978 c5.633,0,10.199-4.567,10.199-10.199S263.668,210.686,258.035,210.686z"/>
    <path style="fill:#4D3D36;" d="M296.711,210.686h-5.089c-5.633,0-10.199,4.567-10.199,10.199s4.566,10.199,10.199,10.199h5.089 c5.633,0,10.199-4.567,10.199-10.199S302.344,210.686,296.711,210.686z"/>
  </g>
  <g/>
  <g/>
  <g/>
  <g/>
  <g/>
  <g/>
  <g/>
  <g/>
  <g/>
  <g/>
  <g/>
  <g/>
  <g/>
  <g/>
  <g/>
</svg>